<svg width="131" height="36" viewBox="0 0 131 36" fill="none" xmlns="http://www.w3.org/2000/svg">
<path fill-rule="evenodd" clip-rule="evenodd" d="M10.8296 17.1179C10.8296 16.0199 11.6405 15.1379 12.6676 15.1379C13.6947 15.1379 14.5235 16.0199 14.5055 17.1179C14.5055 18.2159 13.6947 19.0979 12.6676 19.0979C11.6585 19.0979 10.8296 18.2159 10.8296 17.1179ZM17.4066 17.1179C17.4066 16.0199 18.2175 15.1379 19.2446 15.1379C20.2537 15.1379 21.0825 16.0199 21.0825 17.1179C21.0825 18.2159 20.2717 19.0979 19.2446 19.0979C18.2355 19.0979 17.4066 18.2159 17.4066 17.1179Z" fill="#7289DA"/>
<path fill-rule="evenodd" clip-rule="evenodd" d="M28.0019 0.162109H3.85612C1.81994 0.162109 0.16217 1.81811 0.16217 3.85211V27.9721C0.16217 30.0061 1.81994 31.6621 3.85612 31.6621H24.29L23.3349 28.3681L25.6414 30.4921L27.8217 32.4901L31.7139 35.8561V3.85211C31.6959 1.81811 30.0381 0.162109 28.0019 0.162109ZM21.0465 23.4721C21.0465 23.4721 20.3978 22.6981 19.8572 22.0321C22.2177 21.3661 23.1187 19.9081 23.1187 19.9081C22.3799 20.3941 21.6772 20.7361 21.0465 20.9701C20.1455 21.3481 19.2806 21.5821 18.4337 21.7441C16.7038 22.0681 15.1182 21.9781 13.7667 21.7261C12.7396 21.5281 11.8567 21.2581 11.1179 20.9521C10.7034 20.7901 10.253 20.5921 9.80247 20.3401C9.77544 20.3221 9.74841 20.3086 9.72138 20.2951L9.72135 20.2951C9.69433 20.2816 9.66732 20.2681 9.6403 20.2501C9.62654 20.2432 9.6154 20.2364 9.60589 20.2305C9.5905 20.221 9.57936 20.2141 9.56822 20.2141C9.24388 20.0341 9.06368 19.9081 9.06368 19.9081C9.06368 19.9081 9.92861 21.3301 12.2171 22.0141C11.6765 22.6981 11.0098 23.4901 11.0098 23.4901C7.02751 23.3641 5.51389 20.7721 5.51389 20.7721C5.51389 15.0301 8.10866 10.3681 8.10866 10.3681C10.7034 8.44211 13.1541 8.49611 13.1541 8.49611L13.3342 8.71211C10.0908 9.63011 8.6132 11.0521 8.6132 11.0521C8.6132 11.0521 9.00963 10.8361 9.67634 10.5481C11.6044 9.70211 13.136 9.48611 13.7667 9.41411L13.8071 9.40729C13.898 9.39183 13.9787 9.37811 14.073 9.37811C15.1722 9.23411 16.4155 9.19811 17.7129 9.34211C19.4248 9.54011 21.2627 10.0441 23.1367 11.0521C23.1367 11.0521 21.7132 9.70211 18.6499 8.78411L18.9022 8.49611C18.9022 8.49611 21.3708 8.44211 23.9476 10.3681C23.9476 10.3681 26.5424 15.0301 26.5424 20.7721C26.5424 20.7712 26.5382 20.7774 26.5297 20.7902L26.5297 20.7902C26.3763 21.0199 24.8193 23.3527 21.0465 23.4721ZM42.2732 7.86611H48.2556C51.463 7.86611 54.4722 9.50411 54.4542 13.2481V18.6121C54.4542 22.2841 51.445 23.8861 48.2375 23.8681H42.2552V20.0701H48.3817C49.7692 20.0701 50.3999 19.3681 50.3999 18.3241V13.3381C50.3999 12.2941 49.7331 11.6461 48.3817 11.6461H46.2554V18.1621L42.2732 14.5801V7.86611ZM79.6091 18.6121V13.1041C79.6091 11.1241 83.1769 10.6741 84.258 12.6541L87.5556 11.3221C86.2582 8.47811 83.8977 7.65011 81.9336 7.65011C78.7261 7.65011 75.5547 9.50411 75.5547 13.1041V18.6121C75.5547 22.2481 78.7261 24.0661 81.8615 24.0661C83.8796 24.0661 86.2942 23.0761 87.6276 20.4841L84.0959 18.8641C83.2309 21.0781 79.6091 20.5381 79.6091 18.6121ZM66.5812 12.3661C66.6352 13.1401 67.4641 13.5901 68.7074 13.8601C71.5545 14.3821 74.4015 15.3721 74.2213 19.2781C74.0952 22.3741 70.8337 24.0661 67.8966 24.0661C65.9865 24.0661 63.9503 23.0941 62.4547 21.1681L65.0135 18.7741C66.6172 20.7181 70.149 20.8081 70.2571 19.0981C70.2931 18.1981 68.8336 17.6761 67.5182 17.4961C64.9414 17.1001 62.5989 15.4621 62.5989 12.4201C62.5989 9.28811 65.4459 7.63211 68.3831 7.63211C70.3111 7.63211 72.1851 8.17211 73.8429 10.1881L71.1941 12.2221C69.5183 10.4401 66.6532 10.5121 66.5812 12.3661ZM56.6345 23.8501H60.6708V7.86611H56.6345V23.8501ZM118.711 7.86611H124.693C127.901 7.86611 130.91 9.50411 130.91 13.2481V18.6121C130.91 22.2841 127.901 23.8861 124.693 23.8681H118.693V20.0701H124.819C126.207 20.0701 126.838 19.3681 126.838 18.3241V13.3381C126.838 12.2941 126.171 11.6461 124.819 11.6461H122.693V18.1621L118.711 14.5801V7.86611ZM95.3399 7.65011C92.0243 7.65011 88.7268 9.45011 88.7268 13.1401V18.5941C88.7268 22.2481 92.0424 24.0841 95.3759 24.0841C98.6915 24.0841 101.989 22.2481 101.989 18.5941V13.1401C101.989 9.46811 98.6554 7.65011 95.3399 7.65011ZM95.3579 20.3401C96.6373 20.3401 97.9347 19.7461 97.9347 18.5941V13.1401C97.9347 11.8981 96.6012 11.3401 95.2858 11.3401C94.0245 11.3401 92.7631 11.9701 92.7631 13.1401V18.5941C92.7631 19.7821 94.0605 20.3401 95.3579 20.3401ZM116.476 13.1401C116.386 9.39611 113.828 7.88411 110.53 7.88411H104.133V23.8681H108.224V18.7921H108.944L112.656 23.8681H117.702L113.341 18.3781C115.269 17.7661 116.476 16.0921 116.476 13.1401ZM108.224 15.3001H110.602C113.143 15.3001 113.143 11.6461 110.602 11.6461H108.224V15.3001Z" fill="#7289DA"/>
</svg>
