<svg width="168" height="5" viewBox="0 0 168 5" fill="none" xmlns="http://www.w3.org/2000/svg">
<path d="M2 4.5C0.89543 4.5 0 3.60457 0 2.5C0 1.39543 0.89543 0.5 2 0.5H166C167.105 0.5 168 1.39543 168 2.5C168 3.60457 167.105 4.5 166 4.5H2Z" fill="url(#paint0_linear)"/>
<path d="M2 3.5C1.44772 3.5 1 3.05228 1 2.5C1 1.94772 1.44772 1.5 2 1.5H166C166.552 1.5 167 1.94772 167 2.5C167 3.05228 166.552 3.5 166 3.5H2Z" fill="url(#paint1_linear)"/>
<defs>
<linearGradient id="paint0_linear" x1="0" y1="6.57695" x2="174.464" y2="6.57695" gradientUnits="userSpaceOnUse">
<stop stop-color="#00FFDB" stop-opacity="0.01"/>
<stop offset="0.696187" stop-color="#42F78B" stop-opacity="0.774566"/>
<stop offset="1" stop-color="#00FFB5"/>
</linearGradient>
<linearGradient id="paint1_linear" x1="160.719" y1="0.799034" x2="44.359" y2="0.799034" gradientUnits="userSpaceOnUse">
<stop stop-color="white"/>
<stop offset="1" stop-color="white" stop-opacity="0.01"/>
</linearGradient>
</defs>
</svg>
