<svg width="115" height="158" viewBox="0 0 115 158" fill="none" xmlns="http://www.w3.org/2000/svg">
<g filter="url(#filter0_d)">
<path d="M15.9311 71.7897L11.707 69.1144L10.9311 71.7897H15.9311ZM53.9311 11.7897V6.78969L49.707 9.11443L53.9311 11.7897ZM15.9311 78.2103H10.9311L11.707 80.8856L15.9311 78.2103ZM53.9311 138.21L49.707 140.886L53.9311 143.21V138.21ZM64.0689 138.21V143.21L68.293 140.886L64.0689 138.21ZM102.069 78.2103L106.293 80.8856L107.069 78.2103H102.069ZM102.069 71.7897H107.069L106.293 69.1144L102.069 71.7897ZM64.0689 11.7897L68.293 9.11443L64.0689 6.78969V11.7897ZM18.6713 70.5754L16.3425 66.1508L13.6713 70.5754H18.6713ZM37.0209 60.9177L39.3496 65.3423L41.245 63.593L37.0209 60.9177ZM18.6713 79.4246H13.6713L16.3425 83.8492L18.6713 79.4246ZM37.0209 89.0823L41.245 86.407L39.3496 84.6577L37.0209 89.0823ZM59 123.786L54.7759 126.461H63.2241L59 123.786ZM80.9791 89.0823L78.6504 84.6577L76.755 86.407L80.9791 89.0823ZM99.3287 79.4246L101.657 83.8492L104.329 79.4246H99.3287ZM99.3287 70.5754H104.329L101.657 66.1508L99.3287 70.5754ZM80.9791 60.9177L76.755 63.593L78.6504 65.3423L80.9791 60.9177ZM59 26.2139L63.2241 23.5386H54.7759L59 26.2139ZM20.1552 74.4649L58.1552 14.4649L49.707 9.11443L11.707 69.1144L20.1552 74.4649ZM20.9311 78.2103V71.7897H10.9311V78.2103H20.9311ZM58.1552 135.535L20.1552 75.5351L11.707 80.8856L49.707 140.886L58.1552 135.535ZM64.0689 133.21H53.9311V143.21H64.0689V133.21ZM97.8448 75.5351L59.8448 135.535L68.293 140.886L106.293 80.8856L97.8448 75.5351ZM97.0689 71.7897V78.2103H107.069V71.7897H97.0689ZM59.8448 14.4649L97.8448 74.4649L106.293 69.1144L68.293 9.11443L59.8448 14.4649ZM53.9311 16.7897H64.0689V6.78969H53.9311V16.7897ZM21 75L39.3496 65.3423L34.6922 56.4931L16.3425 66.1508L21 75ZM23.6713 79.4246V70.5754H13.6713V79.4246H23.6713ZM39.3496 84.6577L21 75L16.3425 83.8492L34.6922 93.5069L39.3496 84.6577ZM32.7968 91.7576L54.7759 126.461L63.2241 121.111L41.245 86.407L32.7968 91.7576ZM63.2241 126.461L85.2032 91.7576L76.755 86.407L54.7759 121.111L63.2241 126.461ZM97 75L78.6504 84.6577L83.3078 93.5069L101.657 83.8492L97 75ZM94.3287 70.5754V79.4246H104.329V70.5754H94.3287ZM78.6504 65.3423L97 75L101.657 66.1508L83.3078 56.4931L78.6504 65.3423ZM85.2032 58.2425L63.2241 23.5386L54.7759 28.8891L76.755 63.593L85.2032 58.2425ZM54.7759 23.5386L32.7968 58.2425L41.245 63.593L63.2241 28.8891L54.7759 23.5386Z" fill="url(#paint0_radial)"/>
<path opacity="0.200474" d="M21.9311 71.7897L17.707 69.1144L16.9311 71.7897H21.9311ZM59.9311 11.7897V6.78969L55.707 9.11443L59.9311 11.7897ZM21.9311 78.2103H16.9311L17.707 80.8856L21.9311 78.2103ZM59.9311 138.21L55.707 140.886L59.9311 143.21V138.21ZM70.0689 138.21V143.21L74.293 140.886L70.0689 138.21ZM108.069 78.2103L112.293 80.8856L113.069 78.2103H108.069ZM108.069 71.7897H113.069L112.293 69.1144L108.069 71.7897ZM70.0689 11.7897L74.293 9.11443L70.0689 6.78969V11.7897ZM24.6713 70.5754L22.3425 66.1508L19.6713 70.5754H24.6713ZM43.0209 60.9177L45.3496 65.3423L47.245 63.593L43.0209 60.9177ZM24.6713 79.4246H19.6713L22.3425 83.8492L24.6713 79.4246ZM43.0209 89.0823L47.245 86.407L45.3496 84.6577L43.0209 89.0823ZM65 123.786L60.7759 126.461H69.2241L65 123.786ZM86.9791 89.0823L84.6504 84.6577L82.755 86.407L86.9791 89.0823ZM105.329 79.4246L107.657 83.8492L110.329 79.4246H105.329ZM105.329 70.5754H110.329L107.657 66.1508L105.329 70.5754ZM86.9791 60.9177L82.755 63.593L84.6504 65.3423L86.9791 60.9177ZM65 26.2139L69.2241 23.5386H60.7759L65 26.2139ZM26.1552 74.4649L64.1552 14.4649L55.707 9.11443L17.707 69.1144L26.1552 74.4649ZM26.9311 78.2103V71.7897H16.9311V78.2103H26.9311ZM64.1552 135.535L26.1552 75.5351L17.707 80.8856L55.707 140.886L64.1552 135.535ZM70.0689 133.21H59.9311V143.21H70.0689V133.21ZM103.845 75.5351L65.8448 135.535L74.293 140.886L112.293 80.8856L103.845 75.5351ZM103.069 71.7897V78.2103H113.069V71.7897H103.069ZM65.8448 14.4649L103.845 74.4649L112.293 69.1144L74.293 9.11443L65.8448 14.4649ZM59.9311 16.7897H70.0689V6.78969H59.9311V16.7897ZM27 75L45.3496 65.3423L40.6922 56.4931L22.3425 66.1508L27 75ZM29.6713 79.4246V70.5754H19.6713V79.4246H29.6713ZM45.3496 84.6577L27 75L22.3425 83.8492L40.6922 93.5069L45.3496 84.6577ZM38.7968 91.7576L60.7759 126.461L69.2241 121.111L47.245 86.407L38.7968 91.7576ZM69.2241 126.461L91.2032 91.7576L82.755 86.407L60.7759 121.111L69.2241 126.461ZM103 75L84.6504 84.6577L89.3078 93.5069L107.657 83.8492L103 75ZM100.329 70.5754V79.4246H110.329V70.5754H100.329ZM84.6504 65.3423L103 75L107.657 66.1508L89.3078 56.4931L84.6504 65.3423ZM91.2032 58.2425L69.2241 23.5386L60.7759 28.8891L82.755 63.593L91.2032 58.2425ZM60.7759 23.5386L38.7968 58.2425L47.245 63.593L69.2241 28.8891L60.7759 23.5386Z" fill="url(#paint1_radial)"/>
<path opacity="0.100074" d="M27.9311 71.7897L23.707 69.1144L22.9311 71.7897H27.9311ZM65.9311 11.7897V6.78969L61.707 9.11443L65.9311 11.7897ZM27.9311 78.2103H22.9311L23.707 80.8856L27.9311 78.2103ZM65.9311 138.21L61.707 140.886L65.9311 143.21V138.21ZM76.0689 138.21V143.21L80.293 140.886L76.0689 138.21ZM114.069 78.2103L118.293 80.8856L119.069 78.2103H114.069ZM114.069 71.7897H119.069L118.293 69.1144L114.069 71.7897ZM76.0689 11.7897L80.293 9.11443L76.0689 6.78969V11.7897ZM30.6713 70.5754L28.3425 66.1508L25.6713 70.5754H30.6713ZM49.0209 60.9177L51.3496 65.3423L53.245 63.593L49.0209 60.9177ZM30.6713 79.4246H25.6713L28.3425 83.8492L30.6713 79.4246ZM49.0209 89.0823L53.245 86.407L51.3496 84.6577L49.0209 89.0823ZM71 123.786L66.7759 126.461H75.2241L71 123.786ZM92.9791 89.0823L90.6504 84.6577L88.755 86.407L92.9791 89.0823ZM111.329 79.4246L113.657 83.8492L116.329 79.4246H111.329ZM111.329 70.5754H116.329L113.657 66.1508L111.329 70.5754ZM92.9791 60.9177L88.755 63.593L90.6504 65.3423L92.9791 60.9177ZM71 26.2139L75.2241 23.5386H66.7759L71 26.2139ZM32.1552 74.4649L70.1552 14.4649L61.707 9.11443L23.707 69.1144L32.1552 74.4649ZM32.9311 78.2103V71.7897H22.9311V78.2103H32.9311ZM70.1552 135.535L32.1552 75.5351L23.707 80.8856L61.707 140.886L70.1552 135.535ZM76.0689 133.21H65.9311V143.21H76.0689V133.21ZM109.845 75.5351L71.8448 135.535L80.293 140.886L118.293 80.8856L109.845 75.5351ZM109.069 71.7897V78.2103H119.069V71.7897H109.069ZM71.8448 14.4649L109.845 74.4649L118.293 69.1144L80.293 9.11443L71.8448 14.4649ZM65.9311 16.7897H76.0689V6.78969H65.9311V16.7897ZM33 75L51.3496 65.3423L46.6922 56.4931L28.3425 66.1508L33 75ZM35.6713 79.4246V70.5754H25.6713V79.4246H35.6713ZM51.3496 84.6577L33 75L28.3425 83.8492L46.6922 93.5069L51.3496 84.6577ZM44.7968 91.7576L66.7759 126.461L75.2241 121.111L53.245 86.407L44.7968 91.7576ZM75.2241 126.461L97.2032 91.7576L88.755 86.407L66.7759 121.111L75.2241 126.461ZM109 75L90.6504 84.6577L95.3078 93.5069L113.657 83.8492L109 75ZM106.329 70.5754V79.4246H116.329V70.5754H106.329ZM90.6504 65.3423L109 75L113.657 66.1508L95.3078 56.4931L90.6504 65.3423ZM97.2032 58.2425L75.2241 23.5386L66.7759 28.8891L88.755 63.593L97.2032 58.2425ZM66.7759 23.5386L44.7968 58.2425L53.245 63.593L75.2241 28.8891L66.7759 23.5386Z" fill="url(#paint2_radial)"/>
<path opacity="0.0463635" d="M33.9311 71.7897L29.707 69.1144L28.9311 71.7897H33.9311ZM71.9311 11.7897V6.78969L67.707 9.11443L71.9311 11.7897ZM33.9311 78.2103H28.9311L29.707 80.8856L33.9311 78.2103ZM71.9311 138.21L67.707 140.886L71.9311 143.21V138.21ZM82.0689 138.21V143.21L86.293 140.886L82.0689 138.21ZM120.069 78.2103L124.293 80.8856L125.069 78.2103H120.069ZM120.069 71.7897H125.069L124.293 69.1144L120.069 71.7897ZM82.0689 11.7897L86.293 9.11443L82.0689 6.78969V11.7897ZM36.6713 70.5754L34.3425 66.1508L31.6713 70.5754H36.6713ZM55.0209 60.9177L57.3496 65.3423L59.245 63.593L55.0209 60.9177ZM36.6713 79.4246H31.6713L34.3425 83.8492L36.6713 79.4246ZM55.0209 89.0823L59.245 86.407L57.3496 84.6577L55.0209 89.0823ZM77 123.786L72.7759 126.461H81.2241L77 123.786ZM98.9791 89.0823L96.6504 84.6577L94.755 86.407L98.9791 89.0823ZM117.329 79.4246L119.657 83.8492L122.329 79.4246H117.329ZM117.329 70.5754H122.329L119.657 66.1508L117.329 70.5754ZM98.9791 60.9177L94.755 63.593L96.6504 65.3423L98.9791 60.9177ZM77 26.2139L81.2241 23.5386H72.7759L77 26.2139ZM38.1552 74.4649L76.1552 14.4649L67.707 9.11443L29.707 69.1144L38.1552 74.4649ZM38.9311 78.2103V71.7897H28.9311V78.2103H38.9311ZM76.1552 135.535L38.1552 75.5351L29.707 80.8856L67.707 140.886L76.1552 135.535ZM82.0689 133.21H71.9311V143.21H82.0689V133.21ZM115.845 75.5351L77.8448 135.535L86.293 140.886L124.293 80.8856L115.845 75.5351ZM115.069 71.7897V78.2103H125.069V71.7897H115.069ZM77.8448 14.4649L115.845 74.4649L124.293 69.1144L86.293 9.11443L77.8448 14.4649ZM71.9311 16.7897H82.0689V6.78969H71.9311V16.7897ZM39 75L57.3496 65.3423L52.6922 56.4931L34.3425 66.1508L39 75ZM41.6713 79.4246V70.5754H31.6713V79.4246H41.6713ZM57.3496 84.6577L39 75L34.3425 83.8492L52.6922 93.5069L57.3496 84.6577ZM50.7968 91.7576L72.7759 126.461L81.2241 121.111L59.245 86.407L50.7968 91.7576ZM81.2241 126.461L103.203 91.7576L94.755 86.407L72.7759 121.111L81.2241 126.461ZM115 75L96.6504 84.6577L101.308 93.5069L119.657 83.8492L115 75ZM112.329 70.5754V79.4246H122.329V70.5754H112.329ZM96.6504 65.3423L115 75L119.657 66.1508L101.308 56.4931L96.6504 65.3423ZM103.203 58.2425L81.2241 23.5386L72.7759 28.8891L94.755 63.593L103.203 58.2425ZM72.7759 23.5386L50.7968 58.2425L59.245 63.593L81.2241 28.8891L72.7759 23.5386Z" fill="url(#paint3_radial)"/>
</g>
<defs>
<filter id="filter0_d" x="0.931091" y="0.789795" width="134.138" height="156.421" filterUnits="userSpaceOnUse" color-interpolation-filters="sRGB">
<feFlood flood-opacity="0" result="BackgroundImageFix"/>
<feColorMatrix in="SourceAlpha" type="matrix" values="0 0 0 0 0 0 0 0 0 0 0 0 0 0 0 0 0 0 127 0"/>
<feOffset dy="4"/>
<feGaussianBlur stdDeviation="5"/>
<feColorMatrix type="matrix" values="0 0 0 0 0 0 0 0 0 0 0 0 0 0 0 0 0 0 0.196218 0"/>
<feBlend mode="normal" in2="BackgroundImageFix" result="effect1_dropShadow"/>
<feBlend mode="normal" in="SourceGraphic" in2="effect1_dropShadow" result="shape"/>
</filter>
<radialGradient id="paint0_radial" cx="0" cy="0" r="1" gradientUnits="userSpaceOnUse" gradientTransform="translate(10.8085 37.6394) rotate(42.7743) scale(147.589 168.67)">
<stop stop-color="#00FFDD"/>
<stop offset="1" stop-color="#00FF81"/>
</radialGradient>
<radialGradient id="paint1_radial" cx="0" cy="0" r="1" gradientUnits="userSpaceOnUse" gradientTransform="translate(16.8085 37.6394) rotate(42.7743) scale(147.589 168.67)">
<stop stop-color="#00FFDD"/>
<stop offset="1" stop-color="#00FF81"/>
</radialGradient>
<radialGradient id="paint2_radial" cx="0" cy="0" r="1" gradientUnits="userSpaceOnUse" gradientTransform="translate(22.8085 37.6394) rotate(42.7743) scale(147.589 168.67)">
<stop stop-color="#00FFDD"/>
<stop offset="1" stop-color="#00FF81"/>
</radialGradient>
<radialGradient id="paint3_radial" cx="0" cy="0" r="1" gradientUnits="userSpaceOnUse" gradientTransform="translate(28.8085 37.6394) rotate(42.7743) scale(147.589 168.67)">
<stop stop-color="#00FFDD"/>
<stop offset="1" stop-color="#00FF81"/>
</radialGradient>
</defs>
</svg>
