<svg width="69" height="80" viewBox="0 0 69 80" fill="none" xmlns="http://www.w3.org/2000/svg">
<g filter="url(#filter0_d)">
<path d="M8.46555 36.3948L6.3535 35.0572L5.96555 36.3948H8.46555ZM27.4655 6.39484V3.89484L25.3535 5.05721L27.4655 6.39484ZM8.46555 39.6051H5.96555L6.3535 40.9428L8.46555 39.6051ZM27.4655 69.6051L25.3535 70.9428L27.4655 72.1051V69.6051ZM32.5345 69.6051V72.1051L34.6465 70.9428L32.5345 69.6051ZM51.5345 39.6051L53.6465 40.9428L54.0345 39.6051H51.5345ZM51.5345 36.3948H54.0345L53.6465 35.0572L51.5345 36.3948ZM32.5345 6.39484L34.6465 5.05721L32.5345 3.89484V6.39484ZM9.83564 35.7877L8.67127 33.5754L7.33564 35.7877H9.83564ZM19.0105 30.9588L20.1748 33.1711L21.1225 32.2965L19.0105 30.9588ZM9.83564 40.2123H7.33564L8.67127 42.4246L9.83564 40.2123ZM19.0105 45.0411L21.1225 43.7035L20.1748 42.8288L19.0105 45.0411ZM30 62.3931L27.888 63.7307H32.1121L30 62.3931ZM40.9896 45.0411L39.8252 42.8288L38.8775 43.7035L40.9896 45.0411ZM50.1644 40.2123L51.3287 42.4246L52.6644 40.2123H50.1644ZM50.1644 35.7877H52.6644L51.3287 33.5754L50.1644 35.7877ZM40.9896 30.9588L38.8775 32.2965L39.8252 33.1711L40.9896 30.9588ZM30 13.6069L32.1121 12.2693H27.888L30 13.6069ZM10.5776 37.7325L29.5776 7.73247L25.3535 5.05721L6.3535 35.0572L10.5776 37.7325ZM10.9655 39.6051V36.3948H5.96555V39.6051H10.9655ZM29.5776 68.2675L10.5776 38.2675L6.3535 40.9428L25.3535 70.9428L29.5776 68.2675ZM32.5345 67.1051H27.4655V72.1051H32.5345V67.1051ZM49.4224 38.2675L30.4224 68.2675L34.6465 70.9428L53.6465 40.9428L49.4224 38.2675ZM49.0345 36.3948V39.6051H54.0345V36.3948H49.0345ZM30.4224 7.73247L49.4224 37.7325L53.6465 35.0572L34.6465 5.05721L30.4224 7.73247ZM27.4655 8.89484H32.5345V3.89484H27.4655V8.89484ZM11 38L20.1748 33.1711L17.8461 28.7466L8.67127 33.5754L11 38ZM12.3356 40.2123V35.7877H7.33564V40.2123H12.3356ZM20.1748 42.8288L11 38L8.67127 42.4246L17.8461 47.2534L20.1748 42.8288ZM16.8984 46.3788L27.888 63.7307L32.1121 61.0554L21.1225 43.7035L16.8984 46.3788ZM32.1121 63.7307L43.1016 46.3788L38.8775 43.7035L27.888 61.0554L32.1121 63.7307ZM49 38L39.8252 42.8288L42.1539 47.2534L51.3287 42.4246L49 38ZM47.6644 35.7877V40.2123H52.6644V35.7877H47.6644ZM39.8252 33.1711L49 38L51.3287 33.5754L42.1539 28.7466L39.8252 33.1711ZM43.1016 29.6212L32.1121 12.2693L27.888 14.9446L38.8775 32.2965L43.1016 29.6212ZM27.888 12.2693L16.8984 29.6212L21.1225 32.2965L32.1121 14.9446L27.888 12.2693Z" fill="url(#paint0_radial)"/>
<path opacity="0.200474" d="M11.4655 36.3948L9.3535 35.0572L8.96555 36.3948H11.4655ZM30.4655 6.39484V3.89484L28.3535 5.05721L30.4655 6.39484ZM11.4655 39.6051H8.96555L9.3535 40.9428L11.4655 39.6051ZM30.4655 69.6051L28.3535 70.9428L30.4655 72.1051V69.6051ZM35.5345 69.6051V72.1051L37.6465 70.9428L35.5345 69.6051ZM54.5345 39.6051L56.6465 40.9428L57.0345 39.6051H54.5345ZM54.5345 36.3948H57.0345L56.6465 35.0572L54.5345 36.3948ZM35.5345 6.39484L37.6465 5.05721L35.5345 3.89484V6.39484ZM12.8356 35.7877L11.6713 33.5754L10.3356 35.7877H12.8356ZM22.0105 30.9588L23.1748 33.1711L24.1225 32.2965L22.0105 30.9588ZM12.8356 40.2123H10.3356L11.6713 42.4246L12.8356 40.2123ZM22.0105 45.0411L24.1225 43.7035L23.1748 42.8288L22.0105 45.0411ZM33 62.3931L30.888 63.7307H35.1121L33 62.3931ZM43.9896 45.0411L42.8252 42.8288L41.8775 43.7035L43.9896 45.0411ZM53.1644 40.2123L54.3287 42.4246L55.6644 40.2123H53.1644ZM53.1644 35.7877H55.6644L54.3287 33.5754L53.1644 35.7877ZM43.9896 30.9588L41.8775 32.2965L42.8252 33.1711L43.9896 30.9588ZM33 13.6069L35.1121 12.2693H30.888L33 13.6069ZM13.5776 37.7325L32.5776 7.73247L28.3535 5.05721L9.3535 35.0572L13.5776 37.7325ZM13.9655 39.6051V36.3948H8.96555V39.6051H13.9655ZM32.5776 68.2675L13.5776 38.2675L9.3535 40.9428L28.3535 70.9428L32.5776 68.2675ZM35.5345 67.1051H30.4655V72.1051H35.5345V67.1051ZM52.4224 38.2675L33.4224 68.2675L37.6465 70.9428L56.6465 40.9428L52.4224 38.2675ZM52.0345 36.3948V39.6051H57.0345V36.3948H52.0345ZM33.4224 7.73247L52.4224 37.7325L56.6465 35.0572L37.6465 5.05721L33.4224 7.73247ZM30.4655 8.89484H35.5345V3.89484H30.4655V8.89484ZM14 38L23.1748 33.1711L20.8461 28.7466L11.6713 33.5754L14 38ZM15.3356 40.2123V35.7877H10.3356V40.2123H15.3356ZM23.1748 42.8288L14 38L11.6713 42.4246L20.8461 47.2534L23.1748 42.8288ZM19.8984 46.3788L30.888 63.7307L35.1121 61.0554L24.1225 43.7035L19.8984 46.3788ZM35.1121 63.7307L46.1016 46.3788L41.8775 43.7035L30.888 61.0554L35.1121 63.7307ZM52 38L42.8252 42.8288L45.1539 47.2534L54.3287 42.4246L52 38ZM50.6644 35.7877V40.2123H55.6644V35.7877H50.6644ZM42.8252 33.1711L52 38L54.3287 33.5754L45.1539 28.7466L42.8252 33.1711ZM46.1016 29.6212L35.1121 12.2693L30.888 14.9446L41.8775 32.2965L46.1016 29.6212ZM30.888 12.2693L19.8984 29.6212L24.1225 32.2965L35.1121 14.9446L30.888 12.2693Z" fill="url(#paint1_radial)"/>
<path opacity="0.100074" d="M14.4655 36.3948L12.3535 35.0572L11.9655 36.3948H14.4655ZM33.4655 6.39484V3.89484L31.3535 5.05721L33.4655 6.39484ZM14.4655 39.6051H11.9655L12.3535 40.9428L14.4655 39.6051ZM33.4655 69.6051L31.3535 70.9428L33.4655 72.1051V69.6051ZM38.5345 69.6051V72.1051L40.6465 70.9428L38.5345 69.6051ZM57.5345 39.6051L59.6465 40.9428L60.0345 39.6051H57.5345ZM57.5345 36.3948H60.0345L59.6465 35.0572L57.5345 36.3948ZM38.5345 6.39484L40.6465 5.05721L38.5345 3.89484V6.39484ZM15.8356 35.7877L14.6713 33.5754L13.3356 35.7877H15.8356ZM25.0105 30.9588L26.1748 33.1711L27.1225 32.2965L25.0105 30.9588ZM15.8356 40.2123H13.3356L14.6713 42.4246L15.8356 40.2123ZM25.0105 45.0411L27.1225 43.7035L26.1748 42.8288L25.0105 45.0411ZM36 62.3931L33.888 63.7307H38.1121L36 62.3931ZM46.9896 45.0411L45.8252 42.8288L44.8775 43.7035L46.9896 45.0411ZM56.1644 40.2123L57.3287 42.4246L58.6644 40.2123H56.1644ZM56.1644 35.7877H58.6644L57.3287 33.5754L56.1644 35.7877ZM46.9896 30.9588L44.8775 32.2965L45.8252 33.1711L46.9896 30.9588ZM36 13.6069L38.1121 12.2693H33.888L36 13.6069ZM16.5776 37.7325L35.5776 7.73247L31.3535 5.05721L12.3535 35.0572L16.5776 37.7325ZM16.9655 39.6051V36.3948H11.9655V39.6051H16.9655ZM35.5776 68.2675L16.5776 38.2675L12.3535 40.9428L31.3535 70.9428L35.5776 68.2675ZM38.5345 67.1051H33.4655V72.1051H38.5345V67.1051ZM55.4224 38.2675L36.4224 68.2675L40.6465 70.9428L59.6465 40.9428L55.4224 38.2675ZM55.0345 36.3948V39.6051H60.0345V36.3948H55.0345ZM36.4224 7.73247L55.4224 37.7325L59.6465 35.0572L40.6465 5.05721L36.4224 7.73247ZM33.4655 8.89484H38.5345V3.89484H33.4655V8.89484ZM17 38L26.1748 33.1711L23.8461 28.7466L14.6713 33.5754L17 38ZM18.3356 40.2123V35.7877H13.3356V40.2123H18.3356ZM26.1748 42.8288L17 38L14.6713 42.4246L23.8461 47.2534L26.1748 42.8288ZM22.8984 46.3788L33.888 63.7307L38.1121 61.0554L27.1225 43.7035L22.8984 46.3788ZM38.1121 63.7307L49.1016 46.3788L44.8775 43.7035L33.888 61.0554L38.1121 63.7307ZM55 38L45.8252 42.8288L48.1539 47.2534L57.3287 42.4246L55 38ZM53.6644 35.7877V40.2123H58.6644V35.7877H53.6644ZM45.8252 33.1711L55 38L57.3287 33.5754L48.1539 28.7466L45.8252 33.1711ZM49.1016 29.6212L38.1121 12.2693L33.888 14.9446L44.8775 32.2965L49.1016 29.6212ZM33.888 12.2693L22.8984 29.6212L27.1225 32.2965L38.1121 14.9446L33.888 12.2693Z" fill="url(#paint2_radial)"/>
<path opacity="0.0463635" d="M17.4655 36.3948L15.3535 35.0572L14.9655 36.3948H17.4655ZM36.4655 6.39484V3.89484L34.3535 5.05721L36.4655 6.39484ZM17.4655 39.6051H14.9655L15.3535 40.9428L17.4655 39.6051ZM36.4655 69.6051L34.3535 70.9428L36.4655 72.1051V69.6051ZM41.5345 69.6051V72.1051L43.6465 70.9428L41.5345 69.6051ZM60.5345 39.6051L62.6465 40.9428L63.0345 39.6051H60.5345ZM60.5345 36.3948H63.0345L62.6465 35.0572L60.5345 36.3948ZM41.5345 6.39484L43.6465 5.05721L41.5345 3.89484V6.39484ZM18.8356 35.7877L17.6713 33.5754L16.3356 35.7877H18.8356ZM28.0105 30.9588L29.1748 33.1711L30.1225 32.2965L28.0105 30.9588ZM18.8356 40.2123H16.3356L17.6713 42.4246L18.8356 40.2123ZM28.0105 45.0411L30.1225 43.7035L29.1748 42.8288L28.0105 45.0411ZM39 62.3931L36.888 63.7307H41.1121L39 62.3931ZM49.9896 45.0411L48.8252 42.8288L47.8775 43.7035L49.9896 45.0411ZM59.1644 40.2123L60.3287 42.4246L61.6644 40.2123H59.1644ZM59.1644 35.7877H61.6644L60.3287 33.5754L59.1644 35.7877ZM49.9896 30.9588L47.8775 32.2965L48.8252 33.1711L49.9896 30.9588ZM39 13.6069L41.1121 12.2693H36.888L39 13.6069ZM19.5776 37.7325L38.5776 7.73247L34.3535 5.05721L15.3535 35.0572L19.5776 37.7325ZM19.9655 39.6051V36.3948H14.9655V39.6051H19.9655ZM38.5776 68.2675L19.5776 38.2675L15.3535 40.9428L34.3535 70.9428L38.5776 68.2675ZM41.5345 67.1051H36.4655V72.1051H41.5345V67.1051ZM58.4224 38.2675L39.4224 68.2675L43.6465 70.9428L62.6465 40.9428L58.4224 38.2675ZM58.0345 36.3948V39.6051H63.0345V36.3948H58.0345ZM39.4224 7.73247L58.4224 37.7325L62.6465 35.0572L43.6465 5.05721L39.4224 7.73247ZM36.4655 8.89484H41.5345V3.89484H36.4655V8.89484ZM20 38L29.1748 33.1711L26.8461 28.7466L17.6713 33.5754L20 38ZM21.3356 40.2123V35.7877H16.3356V40.2123H21.3356ZM29.1748 42.8288L20 38L17.6713 42.4246L26.8461 47.2534L29.1748 42.8288ZM25.8984 46.3788L36.888 63.7307L41.1121 61.0554L30.1225 43.7035L25.8984 46.3788ZM41.1121 63.7307L52.1016 46.3788L47.8775 43.7035L36.888 61.0554L41.1121 63.7307ZM58 38L48.8252 42.8288L51.1539 47.2534L60.3287 42.4246L58 38ZM56.6644 35.7877V40.2123H61.6644V35.7877H56.6644ZM48.8252 33.1711L58 38L60.3287 33.5754L51.1539 28.7466L48.8252 33.1711ZM52.1016 29.6212L41.1121 12.2693L36.888 14.9446L47.8775 32.2965L52.1016 29.6212ZM36.888 12.2693L25.8984 29.6212L30.1225 32.2965L41.1121 14.9446L36.888 12.2693Z" fill="url(#paint3_radial)"/>
</g>
<defs>
<filter id="filter0_d" x="0.965546" y="0.894836" width="67.0689" height="78.2103" filterUnits="userSpaceOnUse" color-interpolation-filters="sRGB">
<feFlood flood-opacity="0" result="BackgroundImageFix"/>
<feColorMatrix in="SourceAlpha" type="matrix" values="0 0 0 0 0 0 0 0 0 0 0 0 0 0 0 0 0 0 127 0"/>
<feOffset dy="2"/>
<feGaussianBlur stdDeviation="2.5"/>
<feColorMatrix type="matrix" values="0 0 0 0 0 0 0 0 0 0 0 0 0 0 0 0 0 0 0.196218 0"/>
<feBlend mode="normal" in2="BackgroundImageFix" result="effect1_dropShadow"/>
<feBlend mode="normal" in="SourceGraphic" in2="effect1_dropShadow" result="shape"/>
</filter>
<radialGradient id="paint0_radial" cx="0" cy="0" r="1" gradientUnits="userSpaceOnUse" gradientTransform="translate(2.69006 18.3202) rotate(40.6945) scale(80.9728 91.7723)">
<stop stop-color="#00FFDD"/>
<stop offset="1" stop-color="#00FF81"/>
</radialGradient>
<radialGradient id="paint1_radial" cx="0" cy="0" r="1" gradientUnits="userSpaceOnUse" gradientTransform="translate(5.69006 18.3202) rotate(40.6945) scale(80.9728 91.7723)">
<stop stop-color="#00FFDD"/>
<stop offset="1" stop-color="#00FF81"/>
</radialGradient>
<radialGradient id="paint2_radial" cx="0" cy="0" r="1" gradientUnits="userSpaceOnUse" gradientTransform="translate(8.69006 18.3202) rotate(40.6945) scale(80.9728 91.7723)">
<stop stop-color="#00FFDD"/>
<stop offset="1" stop-color="#00FF81"/>
</radialGradient>
<radialGradient id="paint3_radial" cx="0" cy="0" r="1" gradientUnits="userSpaceOnUse" gradientTransform="translate(11.6901 18.3202) rotate(40.6945) scale(80.9728 91.7723)">
<stop stop-color="#00FFDD"/>
<stop offset="1" stop-color="#00FF81"/>
</radialGradient>
</defs>
</svg>
